<?xml version="1.0" encoding="UTF-8"?>
<svg width="24" height="24" viewBox="0 0 24 24" fill="none" xmlns="http://www.w3.org/2000/svg">
  <circle cx="12" cy="12" r="10" fill="#FFFFFF" />
  <path d="M14.5 8.5C15.5 7.5 15 6 14 6C13 6 12.5 7 12.5 7.5C12.5 8 13 9 14.5 8.5Z" stroke="#000000" stroke-width="1.2" stroke-linecap="round" stroke-linejoin="round"/>
  <path d="M12 8C11 8 9 8.5 8 11C7 13.5 7.5 17 10 18C10.6667 18.3333 11.5 18 12 17.5C12.5 17 13.5 17.5 14.5 18C15.5 18.5 16 18 16.5 17C17 16 17.5 12.5 16 10C14.5 7.5 13 8 12 8Z" stroke="#000000" stroke-width="1.2" stroke-linecap="round" stroke-linejoin="round"/>
</svg> 