<svg width="32" height="32" viewBox="0 0 32 32" fill="none" xmlns="http://www.w3.org/2000/svg">
  <circle cx="16" cy="16" r="16" fill="#F7931A"/>
  <path d="M21.5656 14.5656C21.7031 13.0469 20.5469 12.2656 18.9844 11.7656L19.4531 9.6875L18.1406 9.375L17.6875 11.3906C17.3594 11.3125 17.0156 11.2344 16.6719 11.1562L17.125 9.125L15.8125 8.8125L15.3438 10.8906C15.0625 10.8281 14.7812 10.7656 14.5156 10.7031L14.5156 10.6875L12.75 10.2812L12.4219 11.6875C12.4219 11.6875 13.3594 11.9062 13.3438 11.9219C13.8594 12.0469 13.9531 12.3906 13.9375 12.6562L13.4062 15.0469C13.4375 15.0469 13.4844 15.0625 13.5312 15.0938C13.4844 15.0781 13.4375 15.0781 13.3906 15.0625L12.6719 18.2656C12.6094 18.4219 12.4531 18.6562 12.0938 18.5625C12.1094 18.5781 11.1719 18.3281 11.1719 18.3281L10.5469 19.8438L12.2031 20.2344C12.5 20.3125 12.7969 20.3906 13.0781 20.4688L12.6094 22.5781L13.9219 22.8906L14.3906 20.8125C14.7344 20.8906 15.0625 20.9688 15.3906 21.0313L14.9219 23.0938L16.2344 23.4062L16.7031 21.3125C18.8281 21.7031 20.3594 21.5469 21.0156 19.6094C21.5469 18.0781 21.0156 17.2188 19.9531 16.6719C20.7031 16.5156 21.2656 16.0156 21.5656 14.5656ZM18.2813 18.7813C17.9063 20.3125 15.625 19.5156 14.8594 19.3281L15.5 16.5156C16.2656 16.7031 18.6719 17.1875 18.2813 18.7813ZM18.6563 14.5313C18.3125 15.9219 16.4375 15.25 15.8125 15.0938L16.3906 12.5625C17.0156 12.7188 19.0156 13.0781 18.6563 14.5313Z" fill="white"/>
</svg> 