<svg width="32" height="32" viewBox="0 0 32 32" fill="none" xmlns="http://www.w3.org/2000/svg">
  <circle cx="16" cy="16" r="16" fill="#4A4A4A"/>
  <path d="M16 8C15.4696 8 14.9609 8.21071 14.5858 8.58579C14.2107 8.96086 14 9.46957 14 10V11.5C14 12.0304 13.7893 12.5391 13.4142 12.9142C13.0391 13.2893 12.5304 13.5 12 13.5C11.4477 13.5 11 13.9477 11 14.5C11 15.0523 11.4477 15.5 12 15.5C13.0609 15.5 14.0783 15.0786 14.8284 14.3284C15.5786 13.5783 16 12.5609 16 11.5V10H20C20.5523 10 21 9.55228 21 9C21 8.44772 20.5523 8 20 8H16Z" fill="#333333"/>
  <path d="M10 18C10 15.7909 11.7909 14 14 14H18C20.2091 14 22 15.7909 22 18V22C22 23.1046 21.1046 24 20 24H12C10.8954 24 10 23.1046 10 22V18Z" fill="#333333"/>
  <path d="M17 14H15V18C15 18.5523 15.4477 19 16 19C16.5523 19 17 18.5523 17 18V14Z" fill="#333333"/>
</svg> 