<svg width="32" height="32" viewBox="0 0 32 32" fill="none" xmlns="http://www.w3.org/2000/svg">
  <circle cx="16" cy="16" r="16" fill="#14F195" />
  <path d="M8.48 20.2739C8.56544 20.1888 8.67019 20.1218 8.78579 20.0789C8.90139 20.0359 9.02448 20.0178 9.14667 20.0259H24.88C25.0744 20.0259 25.1511 20.1292 25.0933 20.2739C25.0079 20.359 24.9031 20.426 24.7875 20.4689C24.6719 20.5119 24.5488 20.53 24.4267 20.5219H8.7C8.49333 20.5219 8.42444 20.4186 8.48 20.2739ZM8.48 15.9999C8.56544 15.9149 8.67019 15.8479 8.78579 15.8049C8.90139 15.762 9.02448 15.7439 9.14667 15.7519H24.88C25.0744 15.7519 25.1511 15.8553 25.0933 15.9999C25.0079 16.085 24.9031 16.1521 24.7875 16.195C24.6719 16.2379 24.5488 16.256 24.4267 16.2479H8.7C8.49333 16.2479 8.42444 16.1446 8.48 15.9999ZM8.48 11.7259C8.56544 11.6409 8.67019 11.5739 8.78579 11.5309C8.90139 11.488 9.02448 11.4699 9.14667 11.4779H24.88C25.0744 11.4779 25.1511 11.5813 25.0933 11.7259C25.0079 11.811 24.9031 11.8781 24.7875 11.921C24.6719 11.964 24.5488 11.9821 24.4267 11.9739H8.7C8.49333 11.9739 8.42444 11.8706 8.48 11.7259Z" fill="black"/>
</svg> 