<svg xmlns="http://www.w3.org/2000/svg" viewBox="0 0 32 32" fill="none">
  <circle cx="16" cy="16" r="16" fill="#2775CA"/>
  <path d="M22.5 14.3c0-2.85-1.7-4.2-5.1-4.5V7.2h-2.1v2.6c-.5 0-1.1 0-1.6.1V7.2h-2.1v2.7c-.5 0-1 .1-1.4.1h-2.8v2.2h1.5c.8 0 1.1.5 1.1 1v8c0 .6-.4 1-1.2 1H7.3l-.5 2.5h2.7c.4 0 .9.1 1.4.1v2.6h2.1v-2.6c.5 0 1.1 0 1.6.1v2.6h2.1v-2.6c3.7-.2 5.9-1.6 5.9-4.9 0-2.4-1-3.7-3-4.1 1.2-.5 2-1.4 2-3.2zm-8.2 7.2v-3.5h3.6c1.5 0 2.2.6 2.2 1.7 0 1.2-.7 1.8-2.2 1.8h-3.6zm0-5.7v-3.2h3.2c1.3 0 2 .5 2 1.6 0 1.1-.7 1.6-2 1.6H14.3z" fill="white"/>
</svg> 